<svg xmlns="http://www.w3.org/2000/svg" xmlns:xlink="http://www.w3.org/1999/xlink" width="512" zoomAndPan="magnify" viewBox="0 0 384 383.999986" height="512" preserveAspectRatio="xMidYMid meet" version="1.0"><path fill="#d1ad6c" d="M 343.742188 198.894531 C 343.742188 201.417969 343.679688 203.9375 343.554688 206.453125 C 343.433594 208.972656 343.246094 211.484375 343 213.992188 C 342.753906 216.503906 342.445312 219.003906 342.074219 221.496094 C 341.703125 223.992188 341.273438 226.476562 340.78125 228.945312 C 340.289062 231.417969 339.738281 233.878906 339.125 236.324219 C 338.511719 238.769531 337.839844 241.199219 337.109375 243.609375 C 336.378906 246.023438 335.585938 248.417969 334.738281 250.789062 C 333.886719 253.164062 332.980469 255.515625 332.015625 257.84375 C 331.050781 260.171875 330.03125 262.476562 328.953125 264.757812 C 327.875 267.035156 326.742188 269.285156 325.554688 271.511719 C 324.363281 273.734375 323.121094 275.925781 321.824219 278.089844 C 320.53125 280.25 319.183594 282.378906 317.78125 284.476562 C 316.378906 286.574219 314.929688 288.632812 313.425781 290.65625 C 311.925781 292.683594 310.375 294.667969 308.777344 296.617188 C 307.175781 298.566406 305.53125 300.476562 303.835938 302.34375 C 302.144531 304.210938 300.40625 306.035156 298.625 307.820312 C 296.839844 309.601562 295.015625 311.339844 293.148438 313.03125 C 291.28125 314.726562 289.371094 316.371094 287.421875 317.972656 C 285.472656 319.570312 283.488281 321.121094 281.460938 322.621094 C 279.4375 324.125 277.378906 325.574219 275.28125 326.976562 C 273.183594 328.378906 271.054688 329.726562 268.894531 331.023438 C 266.730469 332.316406 264.539062 333.558594 262.316406 334.75 C 260.089844 335.9375 257.839844 337.070312 255.5625 338.148438 C 253.28125 339.226562 250.976562 340.246094 248.648438 341.210938 C 246.320312 342.175781 243.96875 343.082031 241.59375 343.933594 C 239.222656 344.78125 236.828125 345.574219 234.414062 346.304688 C 232.003906 347.035156 229.574219 347.707031 227.128906 348.320312 C 224.683594 348.933594 222.222656 349.484375 219.75 349.976562 C 217.277344 350.46875 214.796875 350.898438 212.300781 351.269531 C 209.808594 351.640625 207.308594 351.949219 204.796875 352.195312 C 202.289062 352.441406 199.777344 352.628906 197.257812 352.75 C 194.742188 352.875 192.222656 352.9375 189.699219 352.9375 C 187.179688 352.9375 184.660156 352.875 182.140625 352.75 C 179.625 352.628906 177.109375 352.441406 174.601562 352.195312 C 172.09375 351.949219 169.589844 351.640625 167.097656 351.269531 C 164.601562 350.898438 162.121094 350.46875 159.648438 349.976562 C 157.175781 349.484375 154.714844 348.933594 152.269531 348.320312 C 149.824219 347.707031 147.394531 347.035156 144.984375 346.304688 C 142.570312 345.574219 140.179688 344.78125 137.804688 343.933594 C 135.429688 343.082031 133.078125 342.175781 130.75 341.210938 C 128.421875 340.246094 126.117188 339.226562 123.839844 338.148438 C 121.558594 337.070312 119.308594 335.9375 117.085938 334.75 C 114.863281 333.558594 112.667969 332.316406 110.507812 331.023438 C 108.34375 329.726562 106.214844 328.378906 104.117188 326.976562 C 102.023438 325.574219 99.960938 324.125 97.9375 322.621094 C 95.910156 321.121094 93.925781 319.570312 91.976562 317.972656 C 90.027344 316.371094 88.121094 314.726562 86.25 313.03125 C 84.382812 311.339844 82.558594 309.601562 80.773438 307.820312 C 78.992188 306.035156 77.253906 304.210938 75.5625 302.34375 C 73.867188 300.476562 72.222656 298.566406 70.625 296.617188 C 69.023438 294.667969 67.472656 292.683594 65.972656 290.65625 C 64.46875 288.632812 63.019531 286.574219 61.617188 284.476562 C 60.21875 282.378906 58.871094 280.25 57.574219 278.089844 C 56.277344 275.925781 55.035156 273.734375 53.847656 271.511719 C 52.65625 269.285156 51.523438 267.035156 50.445312 264.757812 C 49.371094 262.476562 48.347656 260.171875 47.382812 257.84375 C 46.417969 255.515625 45.511719 253.164062 44.664062 250.789062 C 43.8125 248.417969 43.023438 246.023438 42.289062 243.609375 C 41.558594 241.199219 40.886719 238.769531 40.273438 236.324219 C 39.660156 233.878906 39.109375 231.417969 38.617188 228.945312 C 38.125 226.476562 37.695312 223.992188 37.324219 221.496094 C 36.953125 219.003906 36.644531 216.503906 36.398438 213.992188 C 36.152344 211.484375 35.964844 208.972656 35.84375 206.453125 C 35.71875 203.9375 35.65625 201.417969 35.65625 198.894531 C 35.65625 196.375 35.71875 193.855469 35.84375 191.335938 C 35.964844 188.820312 36.152344 186.304688 36.398438 183.796875 C 36.644531 181.289062 36.953125 178.785156 37.324219 176.292969 C 37.695312 173.796875 38.125 171.316406 38.617188 168.84375 C 39.109375 166.371094 39.660156 163.910156 40.273438 161.464844 C 40.886719 159.019531 41.558594 156.589844 42.289062 154.179688 C 43.023438 151.765625 43.8125 149.375 44.664062 147 C 45.511719 144.625 46.417969 142.273438 47.382812 139.945312 C 48.347656 137.617188 49.371094 135.3125 50.445312 133.035156 C 51.523438 130.753906 52.65625 128.503906 53.847656 126.28125 C 55.035156 124.058594 56.277344 121.863281 57.574219 119.703125 C 58.871094 117.539062 60.21875 115.410156 61.617188 113.3125 C 63.019531 111.21875 64.46875 109.15625 65.972656 107.132812 C 67.472656 105.105469 69.023438 103.121094 70.625 101.171875 C 72.222656 99.222656 73.867188 97.316406 75.5625 95.445312 C 77.253906 93.578125 78.992188 91.753906 80.777344 89.972656 C 82.558594 88.1875 84.382812 86.449219 86.25 84.757812 C 88.121094 83.0625 90.027344 81.417969 91.976562 79.820312 C 93.925781 78.21875 95.910156 76.667969 97.9375 75.167969 C 99.960938 73.664062 102.023438 72.214844 104.117188 70.8125 C 106.214844 69.414062 108.34375 68.066406 110.507812 66.769531 C 112.667969 65.472656 114.863281 64.230469 117.085938 63.042969 C 119.308594 61.855469 121.558594 60.71875 123.839844 59.640625 C 126.117188 58.566406 128.421875 57.542969 130.75 56.578125 C 133.078125 55.613281 135.429688 54.707031 137.804688 53.859375 C 140.179688 53.007812 142.570312 52.21875 144.984375 51.484375 C 147.394531 50.753906 149.824219 50.082031 152.269531 49.46875 C 154.714844 48.855469 157.175781 48.304688 159.648438 47.8125 C 162.121094 47.320312 164.601562 46.890625 167.097656 46.519531 C 169.589844 46.148438 172.09375 45.839844 174.601562 45.59375 C 177.109375 45.347656 179.625 45.160156 182.140625 45.039062 C 184.660156 44.914062 187.179688 44.851562 189.699219 44.851562 C 192.222656 44.851562 194.742188 44.914062 197.257812 45.039062 C 199.777344 45.160156 202.289062 45.347656 204.796875 45.59375 C 207.308594 45.839844 209.808594 46.148438 212.300781 46.519531 C 214.796875 46.890625 217.277344 47.320312 219.75 47.8125 C 222.222656 48.304688 224.683594 48.855469 227.128906 49.46875 C 229.574219 50.082031 232.003906 50.753906 234.414062 51.484375 C 236.828125 52.21875 239.222656 53.007812 241.59375 53.859375 C 243.96875 54.707031 246.320312 55.613281 248.648438 56.578125 C 250.976562 57.542969 253.28125 58.566406 255.5625 59.640625 C 257.839844 60.71875 260.089844 61.855469 262.316406 63.042969 C 264.539062 64.230469 266.730469 65.472656 268.894531 66.769531 C 271.054688 68.066406 273.183594 69.414062 275.28125 70.8125 C 277.378906 72.214844 279.4375 73.664062 281.460938 75.167969 C 283.488281 76.667969 285.472656 78.21875 287.421875 79.820312 C 289.371094 81.417969 291.28125 83.0625 293.148438 84.757812 C 295.015625 86.449219 296.839844 88.1875 298.625 89.972656 C 300.40625 91.753906 302.144531 93.578125 303.835938 95.445312 C 305.53125 97.316406 307.175781 99.222656 308.777344 101.171875 C 310.375 103.121094 311.925781 105.105469 313.425781 107.132812 C 314.929688 109.15625 316.378906 111.21875 317.78125 113.3125 C 319.183594 115.410156 320.53125 117.539062 321.824219 119.703125 C 323.121094 121.863281 324.363281 124.058594 325.554688 126.28125 C 326.742188 128.503906 327.875 130.753906 328.953125 133.035156 C 330.03125 135.3125 331.050781 137.617188 332.015625 139.945312 C 332.980469 142.273438 333.886719 144.625 334.738281 147 C 335.585938 149.375 336.378906 151.765625 337.109375 154.179688 C 337.839844 156.589844 338.511719 159.019531 339.125 161.464844 C 339.738281 163.910156 340.289062 166.371094 340.78125 168.84375 C 341.273438 171.316406 341.703125 173.796875 342.074219 176.292969 C 342.445312 178.785156 342.753906 181.289062 343 183.796875 C 343.246094 186.304688 343.433594 188.820312 343.554688 191.335938 C 343.679688 193.855469 343.742188 196.375 343.742188 198.894531 Z M 343.742188 198.894531 " fill-opacity="1" fill-rule="nonzero"/><path fill="#000000" d="M 189.882812 357.027344 C 187.222656 357.027344 184.558594 356.960938 181.878906 356.828125 C 178.003906 356.636719 174.136719 356.300781 170.285156 355.824219 C 166.429688 355.347656 162.601562 354.730469 158.792969 353.972656 C 154.984375 353.214844 151.210938 352.316406 147.46875 351.277344 C 143.726562 350.242188 140.027344 349.066406 136.371094 347.757812 C 132.714844 346.449219 129.113281 345.007812 125.566406 343.433594 C 122.015625 341.855469 118.53125 340.152344 115.105469 338.320312 C 111.683594 336.492188 108.332031 334.535156 105.050781 332.457031 C 101.773438 330.378906 98.574219 328.183594 95.457031 325.867188 C 92.339844 323.554688 89.308594 321.128906 86.371094 318.589844 C 83.429688 316.054688 80.589844 313.410156 77.84375 310.664062 C 75.101562 307.917969 72.460938 305.074219 69.925781 302.132812 C 67.390625 299.191406 64.96875 296.164062 62.65625 293.042969 C 60.34375 289.921875 58.148438 286.722656 56.074219 283.441406 C 53.996094 280.160156 52.046875 276.808594 50.214844 273.382812 C 48.386719 269.957031 46.6875 266.46875 45.113281 262.917969 C 43.542969 259.371094 42.101562 255.765625 40.796875 252.109375 C 39.488281 248.453125 38.320312 244.753906 37.285156 241.011719 C 36.25 237.269531 35.355469 233.492188 34.601562 229.683594 C 33.84375 225.875 33.230469 222.046875 32.753906 218.191406 C 32.28125 214.339844 31.949219 210.472656 31.761719 206.59375 C 31.570312 202.714844 31.523438 198.835938 31.621094 194.953125 C 31.71875 191.074219 31.957031 187.199219 32.339844 183.335938 C 32.722656 179.472656 33.246094 175.628906 33.910156 171.800781 C 34.578125 167.976562 35.382812 164.179688 36.324219 160.414062 C 37.269531 156.648438 38.351562 152.921875 39.574219 149.238281 C 40.792969 145.550781 42.144531 141.914062 43.632812 138.328125 C 45.121094 134.742188 46.738281 131.214844 48.484375 127.746094 C 50.230469 124.277344 52.101562 120.878906 54.101562 117.550781 C 56.097656 114.21875 58.214844 110.96875 60.453125 107.796875 C 62.6875 104.621094 65.039062 101.535156 67.503906 98.535156 C 69.96875 95.535156 72.539062 92.628906 75.21875 89.816406 C 77.894531 87.003906 80.671875 84.296875 83.550781 81.691406 C 85.46875 79.953125 87.429688 78.265625 89.429688 76.625 C 91.433594 74.984375 93.472656 73.394531 95.550781 71.855469 C 97.628906 70.316406 99.746094 68.828125 101.898438 67.390625 C 104.050781 65.957031 106.238281 64.574219 108.457031 63.246094 C 110.675781 61.917969 112.929688 60.644531 115.210938 59.425781 C 117.492188 58.207031 119.804688 57.046875 122.144531 55.941406 C 124.484375 54.835938 126.847656 53.789062 129.242188 52.800781 C 131.632812 51.8125 134.046875 50.882812 136.480469 50.011719 C 138.917969 49.144531 141.375 48.332031 143.851562 47.582031 C 146.328125 46.835938 148.820312 46.144531 151.332031 45.519531 C 153.839844 44.890625 156.367188 44.328125 158.902344 43.824219 C 161.441406 43.320312 163.988281 42.878906 166.550781 42.5 C 169.109375 42.125 171.675781 41.808594 174.25 41.554688 C 176.828125 41.304688 179.40625 41.113281 181.988281 40.988281 C 184.574219 40.863281 187.160156 40.800781 189.746094 40.804688 C 192.335938 40.804688 194.921875 40.871094 197.503906 41 C 200.089844 41.125 202.667969 41.320312 205.242188 41.574219 C 207.816406 41.828125 210.382812 42.144531 212.945312 42.527344 C 215.503906 42.910156 218.050781 43.351562 220.589844 43.859375 C 223.125 44.363281 225.648438 44.933594 228.160156 45.5625 C 230.667969 46.191406 233.160156 46.882812 235.636719 47.636719 C 238.113281 48.386719 240.566406 49.199219 243.003906 50.074219 C 245.4375 50.945312 247.851562 51.878906 250.242188 52.867188 C 252.632812 53.859375 254.996094 54.910156 257.332031 56.015625 C 259.671875 57.125 261.980469 58.289062 264.261719 59.507812 C 266.542969 60.730469 268.792969 62.003906 271.011719 63.335938 C 273.230469 64.667969 275.417969 66.050781 277.566406 67.492188 C 279.71875 68.929688 281.832031 70.417969 283.910156 71.960938 C 285.988281 73.503906 288.023438 75.09375 290.023438 76.738281 C 292.023438 78.378906 293.980469 80.070312 295.898438 81.808594 C 297.8125 83.546875 299.6875 85.332031 301.515625 87.160156 C 303.34375 88.992188 305.128906 90.867188 306.863281 92.785156 C 308.601562 94.699219 310.289062 96.660156 311.929688 98.660156 C 313.570312 100.660156 315.160156 102.699219 316.703125 104.78125 C 318.242188 106.859375 319.730469 108.972656 321.167969 111.125 C 322.605469 113.277344 323.988281 115.460938 325.316406 117.683594 C 326.644531 119.902344 327.921875 122.152344 329.140625 124.433594 C 330.359375 126.71875 331.519531 129.027344 332.625 131.367188 C 333.730469 133.707031 334.777344 136.070312 335.769531 138.460938 C 336.757812 140.851562 337.6875 143.265625 338.558594 145.703125 C 339.429688 148.140625 340.242188 150.59375 340.992188 153.070312 C 341.742188 155.546875 342.429688 158.039062 343.058594 160.550781 C 343.6875 163.058594 344.253906 165.585938 344.757812 168.121094 C 345.261719 170.660156 345.703125 173.207031 346.082031 175.769531 C 346.460938 178.328125 346.777344 180.894531 347.03125 183.46875 C 347.28125 186.042969 347.472656 188.625 347.597656 191.207031 C 347.726562 193.792969 347.789062 196.378906 347.789062 198.964844 C 347.785156 201.550781 347.722656 204.136719 347.59375 206.722656 C 347.46875 209.304688 347.277344 211.886719 347.023438 214.460938 C 346.769531 217.035156 346.453125 219.601562 346.070312 222.160156 C 345.691406 224.722656 345.25 227.269531 344.742188 229.808594 C 344.238281 232.34375 343.671875 234.867188 343.042969 237.378906 C 342.414062 239.886719 341.722656 242.378906 340.972656 244.855469 C 340.21875 247.332031 339.410156 249.789062 338.535156 252.222656 C 337.664062 254.660156 336.734375 257.074219 335.742188 259.464844 C 334.753906 261.851562 333.703125 264.21875 332.597656 266.554688 C 331.492188 268.894531 330.328125 271.207031 329.109375 273.488281 C 327.886719 275.769531 326.613281 278.019531 325.28125 280.238281 C 323.953125 282.457031 322.566406 284.640625 321.128906 286.792969 C 319.691406 288.945312 318.203125 291.058594 316.660156 293.136719 C 315.121094 295.214844 313.527344 297.253906 311.886719 299.253906 C 310.246094 301.253906 308.554688 303.210938 306.820312 305.128906 C 305.082031 307.046875 303.296875 308.917969 301.46875 310.75 C 299.636719 312.578125 297.765625 314.363281 295.847656 316.101562 C 292.265625 319.363281 288.539062 322.453125 284.667969 325.371094 C 280.800781 328.289062 276.804688 331.023438 272.683594 333.570312 C 268.558594 336.121094 264.328125 338.472656 259.988281 340.628906 C 255.648438 342.785156 251.21875 344.738281 246.699219 346.484375 C 242.175781 348.230469 237.585938 349.761719 232.921875 351.082031 C 228.257812 352.40625 223.546875 353.507812 218.78125 354.390625 C 214.015625 355.277344 209.21875 355.9375 204.394531 356.378906 C 199.566406 356.820312 194.730469 357.035156 189.882812 357.027344 Z M 189.523438 48.933594 C 185.921875 48.9375 182.324219 49.070312 178.730469 49.335938 C 175.136719 49.597656 171.558594 49.992188 167.992188 50.511719 C 164.429688 51.035156 160.886719 51.683594 157.367188 52.460938 C 153.851562 53.238281 150.363281 54.140625 146.910156 55.167969 C 143.457031 56.195312 140.046875 57.347656 136.675781 58.621094 C 133.304688 59.894531 129.984375 61.289062 126.714844 62.800781 C 123.445312 64.316406 120.234375 65.945312 117.082031 67.691406 C 113.929688 69.433594 110.84375 71.289062 107.824219 73.257812 C 104.808594 75.226562 101.863281 77.296875 98.996094 79.476562 C 96.125 81.65625 93.339844 83.9375 90.632812 86.316406 C 87.929688 88.695312 85.3125 91.171875 82.785156 93.742188 C 80.261719 96.308594 77.828125 98.964844 75.496094 101.710938 C 73.160156 104.453125 70.925781 107.277344 68.796875 110.183594 C 66.664062 113.089844 64.640625 116.066406 62.722656 119.117188 C 60.804688 122.167969 59 125.285156 57.308594 128.464844 C 55.617188 131.644531 54.042969 134.882812 52.582031 138.175781 C 51.125 141.472656 49.785156 144.816406 48.566406 148.207031 C 47.351562 151.597656 46.257812 155.027344 45.285156 158.496094 C 44.316406 161.964844 43.46875 165.46875 42.753906 168.996094 C 42.035156 172.527344 41.445312 176.082031 40.980469 179.652344 C 40.519531 183.226562 40.1875 186.8125 39.980469 190.410156 C 39.777344 194.007812 39.703125 197.605469 39.761719 201.207031 C 39.816406 204.8125 40 208.40625 40.316406 211.996094 C 40.628906 215.585938 41.074219 219.160156 41.648438 222.714844 C 42.21875 226.273438 42.917969 229.804688 43.746094 233.3125 C 44.574219 236.820312 45.523438 240.292969 46.601562 243.730469 C 47.679688 247.167969 48.878906 250.5625 50.199219 253.914062 C 51.523438 257.265625 52.964844 260.566406 54.523438 263.8125 C 56.082031 267.0625 57.757812 270.25 59.546875 273.375 C 61.335938 276.503906 63.238281 279.5625 65.246094 282.550781 C 67.257812 285.542969 69.371094 288.457031 71.59375 291.292969 C 73.8125 294.132812 76.132812 296.886719 78.550781 299.558594 C 81.023438 302.285156 83.589844 304.921875 86.257812 307.460938 C 88.921875 310 91.679688 312.441406 94.523438 314.777344 C 97.367188 317.113281 100.296875 319.34375 103.304688 321.464844 C 106.316406 323.585938 109.398438 325.59375 112.558594 327.488281 C 115.714844 329.382812 118.9375 331.15625 122.226562 332.8125 C 125.515625 334.472656 128.859375 336.003906 132.261719 337.414062 C 135.660156 338.824219 139.109375 340.109375 142.605469 341.265625 C 146.101562 342.421875 149.636719 343.449219 153.207031 344.34375 C 156.777344 345.238281 160.378906 346.003906 164.007812 346.632812 C 167.632812 347.265625 171.28125 347.761719 174.945312 348.125 C 178.609375 348.484375 182.28125 348.714844 185.960938 348.804688 C 189.644531 348.898438 193.324219 348.851562 197 348.671875 C 200.679688 348.496094 204.34375 348.179688 208 347.730469 C 211.652344 347.28125 215.285156 346.699219 218.898438 345.980469 C 222.511719 345.265625 226.089844 344.414062 229.640625 343.433594 C 233.1875 342.453125 236.699219 341.34375 240.164062 340.105469 C 243.632812 338.867188 247.050781 337.5 250.417969 336.011719 C 253.78125 334.519531 257.089844 332.90625 260.339844 331.171875 C 263.585938 329.4375 266.765625 327.585938 269.878906 325.617188 C 272.988281 323.648438 276.023438 321.566406 278.984375 319.375 C 281.941406 317.183594 284.816406 314.886719 287.605469 312.480469 C 290.394531 310.078125 293.089844 307.574219 295.695312 304.972656 C 298.300781 302.367188 300.804688 299.671875 303.210938 296.886719 C 305.617188 294.097656 307.917969 291.226562 310.113281 288.269531 C 312.308594 285.3125 314.390625 282.28125 316.359375 279.167969 C 318.332031 276.058594 320.1875 272.882812 321.921875 269.632812 C 323.660156 266.386719 325.277344 263.082031 326.769531 259.714844 C 328.261719 256.351562 329.628906 252.933594 330.871094 249.46875 C 332.113281 246 333.226562 242.492188 334.210938 238.945312 C 335.195312 235.398438 336.046875 231.816406 336.765625 228.207031 C 337.484375 224.59375 338.070312 220.960938 338.523438 217.308594 C 338.976562 213.652344 339.292969 209.988281 339.472656 206.308594 C 339.59375 203.859375 339.65625 201.40625 339.65625 198.949219 C 339.65625 196.496094 339.597656 194.042969 339.480469 191.59375 C 339.359375 189.140625 339.179688 186.695312 338.941406 184.253906 C 338.699219 181.808594 338.402344 179.375 338.042969 176.949219 C 337.683594 174.519531 337.265625 172.101562 336.785156 169.695312 C 336.308594 167.289062 335.773438 164.894531 335.175781 162.511719 C 334.582031 160.132812 333.929688 157.765625 333.214844 155.417969 C 332.503906 153.070312 331.734375 150.738281 330.910156 148.429688 C 330.085938 146.117188 329.203125 143.828125 328.265625 141.5625 C 327.324219 139.292969 326.332031 137.050781 325.285156 134.832031 C 324.234375 132.613281 323.132812 130.421875 321.976562 128.253906 C 320.820312 126.089844 319.613281 123.957031 318.351562 121.851562 C 317.089844 119.746094 315.777344 117.671875 314.417969 115.628906 C 313.054688 113.589844 311.640625 111.582031 310.179688 109.613281 C 308.71875 107.640625 307.210938 105.703125 305.65625 103.808594 C 304.097656 101.910156 302.496094 100.050781 300.847656 98.230469 C 299.203125 96.414062 297.511719 94.636719 295.777344 92.898438 C 294.042969 91.164062 292.265625 89.472656 290.445312 87.824219 C 288.628906 86.171875 286.773438 84.570312 284.875 83.011719 C 282.980469 81.457031 281.046875 79.945312 279.074219 78.484375 C 277.105469 77.019531 275.097656 75.605469 273.058594 74.242188 C 271.019531 72.878906 268.945312 71.566406 266.84375 70.300781 C 264.738281 69.039062 262.605469 67.828125 260.441406 66.671875 C 258.277344 65.515625 256.085938 64.410156 253.867188 63.359375 C 251.648438 62.308594 249.40625 61.316406 247.140625 60.375 C 244.871094 59.433594 242.582031 58.550781 240.273438 57.722656 C 237.960938 56.894531 235.632812 56.125 233.285156 55.410156 C 230.9375 54.699219 228.574219 54.042969 226.191406 53.445312 C 223.8125 52.847656 221.417969 52.308594 219.011719 51.832031 C 216.605469 51.351562 214.1875 50.929688 211.761719 50.570312 C 209.332031 50.207031 206.898438 49.90625 204.457031 49.664062 C 202.011719 49.425781 199.566406 49.242188 197.117188 49.121094 C 194.578125 48.996094 192.046875 48.933594 189.523438 48.933594 Z M 189.523438 48.933594 " fill-opacity="1" fill-rule="nonzero"/><path fill="#000000" d="M 161.574219 158.273438 C 161.574219 158.925781 161.554688 159.578125 161.507812 160.226562 C 161.464844 160.875 161.398438 161.519531 161.3125 162.160156 C 161.226562 162.800781 161.117188 163.433594 160.988281 164.058594 C 160.859375 164.679688 160.707031 165.292969 160.539062 165.898438 C 160.367188 166.5 160.175781 167.089844 159.964844 167.664062 C 159.753906 168.242188 159.527344 168.800781 159.277344 169.34375 C 159.03125 169.882812 158.765625 170.40625 158.480469 170.914062 C 158.199219 171.417969 157.898438 171.898438 157.582031 172.359375 C 157.265625 172.824219 156.9375 173.261719 156.589844 173.675781 C 156.246094 174.089844 155.886719 174.476562 155.515625 174.839844 C 155.144531 175.203125 154.761719 175.535156 154.371094 175.84375 C 153.976562 176.152344 153.574219 176.429688 153.160156 176.679688 C 152.746094 176.929688 152.328125 177.148438 151.902344 177.339844 C 151.472656 177.527344 151.039062 177.6875 150.601562 177.8125 C 150.164062 177.941406 149.722656 178.035156 149.28125 178.101562 C 148.835938 178.164062 148.390625 178.195312 147.945312 178.195312 C 147.496094 178.195312 147.050781 178.164062 146.609375 178.101562 C 146.164062 178.035156 145.722656 177.941406 145.285156 177.8125 C 144.847656 177.6875 144.414062 177.527344 143.988281 177.339844 C 143.558594 177.148438 143.140625 176.929688 142.726562 176.679688 C 142.316406 176.429688 141.910156 176.152344 141.519531 175.84375 C 141.125 175.535156 140.742188 175.203125 140.371094 174.839844 C 140 174.476562 139.640625 174.089844 139.296875 173.675781 C 138.949219 173.261719 138.621094 172.824219 138.304688 172.359375 C 137.988281 171.898438 137.691406 171.417969 137.40625 170.914062 C 137.125 170.40625 136.859375 169.882812 136.609375 169.34375 C 136.363281 168.800781 136.132812 168.242188 135.921875 167.664062 C 135.710938 167.089844 135.519531 166.5 135.351562 165.898438 C 135.179688 165.292969 135.027344 164.679688 134.898438 164.058594 C 134.769531 163.433594 134.660156 162.800781 134.574219 162.160156 C 134.488281 161.519531 134.421875 160.875 134.378906 160.226562 C 134.335938 159.578125 134.3125 158.925781 134.3125 158.273438 C 134.3125 157.621094 134.335938 156.96875 134.378906 156.320312 C 134.421875 155.671875 134.488281 155.027344 134.574219 154.386719 C 134.660156 153.746094 134.769531 153.113281 134.898438 152.488281 C 135.027344 151.867188 135.179688 151.253906 135.351562 150.648438 C 135.519531 150.046875 135.710938 149.457031 135.921875 148.882812 C 136.132812 148.304688 136.363281 147.746094 136.609375 147.203125 C 136.859375 146.664062 137.125 146.136719 137.40625 145.632812 C 137.691406 145.128906 137.988281 144.648438 138.304688 144.1875 C 138.621094 143.722656 138.949219 143.285156 139.296875 142.871094 C 139.640625 142.457031 140 142.070312 140.371094 141.707031 C 140.742188 141.34375 141.125 141.011719 141.519531 140.703125 C 141.910156 140.394531 142.316406 140.117188 142.726562 139.867188 C 143.140625 139.617188 143.558594 139.398438 143.988281 139.207031 C 144.414062 139.019531 144.847656 138.859375 145.285156 138.734375 C 145.722656 138.605469 146.164062 138.511719 146.609375 138.445312 C 147.050781 138.382812 147.496094 138.351562 147.945312 138.351562 C 148.390625 138.351562 148.835938 138.382812 149.28125 138.445312 C 149.722656 138.511719 150.164062 138.605469 150.601562 138.734375 C 151.039062 138.859375 151.472656 139.019531 151.902344 139.207031 C 152.328125 139.398438 152.746094 139.617188 153.160156 139.867188 C 153.574219 140.117188 153.976562 140.394531 154.371094 140.703125 C 154.761719 141.011719 155.144531 141.34375 155.515625 141.707031 C 155.886719 142.070312 156.246094 142.457031 156.589844 142.871094 C 156.9375 143.285156 157.265625 143.722656 157.582031 144.1875 C 157.898438 144.648438 158.199219 145.128906 158.480469 145.632812 C 158.765625 146.136719 159.03125 146.664062 159.277344 147.203125 C 159.527344 147.746094 159.753906 148.304688 159.964844 148.882812 C 160.175781 149.457031 160.367188 150.046875 160.539062 150.648438 C 160.707031 151.253906 160.859375 151.867188 160.988281 152.488281 C 161.117188 153.113281 161.226562 153.746094 161.3125 154.386719 C 161.398438 155.027344 161.464844 155.671875 161.507812 156.320312 C 161.554688 156.96875 161.574219 157.621094 161.574219 158.273438 Z M 161.574219 158.273438 " fill-opacity="1" fill-rule="nonzero"/><path fill="#000000" d="M 245.089844 158.273438 C 245.089844 158.925781 245.066406 159.578125 245.023438 160.226562 C 244.980469 160.875 244.914062 161.519531 244.824219 162.160156 C 244.738281 162.800781 244.628906 163.433594 244.5 164.058594 C 244.371094 164.679688 244.222656 165.292969 244.050781 165.898438 C 243.878906 166.5 243.6875 167.089844 243.476562 167.664062 C 243.269531 168.242188 243.039062 168.800781 242.789062 169.34375 C 242.542969 169.882812 242.277344 170.40625 241.992188 170.914062 C 241.710938 171.417969 241.410156 171.898438 241.09375 172.359375 C 240.78125 172.824219 240.449219 173.261719 240.105469 173.675781 C 239.757812 174.089844 239.402344 174.476562 239.03125 174.839844 C 238.660156 175.203125 238.277344 175.535156 237.882812 175.84375 C 237.488281 176.152344 237.085938 176.429688 236.671875 176.679688 C 236.261719 176.929688 235.839844 177.148438 235.414062 177.339844 C 234.984375 177.527344 234.554688 177.6875 234.117188 177.8125 C 233.679688 177.941406 233.238281 178.035156 232.792969 178.101562 C 232.347656 178.164062 231.902344 178.195312 231.457031 178.195312 C 231.011719 178.195312 230.566406 178.164062 230.121094 178.101562 C 229.675781 178.035156 229.234375 177.941406 228.796875 177.8125 C 228.359375 177.6875 227.925781 177.527344 227.5 177.339844 C 227.070312 177.148438 226.652344 176.929688 226.238281 176.679688 C 225.828125 176.429688 225.425781 176.152344 225.03125 175.84375 C 224.636719 175.535156 224.253906 175.203125 223.882812 174.839844 C 223.511719 174.476562 223.152344 174.089844 222.808594 173.675781 C 222.464844 173.261719 222.132812 172.824219 221.816406 172.359375 C 221.5 171.898438 221.203125 171.417969 220.917969 170.914062 C 220.636719 170.40625 220.371094 169.882812 220.121094 169.34375 C 219.875 168.800781 219.644531 168.242188 219.433594 167.664062 C 219.222656 167.089844 219.035156 166.5 218.863281 165.898438 C 218.691406 165.292969 218.542969 164.679688 218.410156 164.058594 C 218.28125 163.433594 218.175781 162.800781 218.085938 162.160156 C 218 161.519531 217.933594 160.875 217.890625 160.226562 C 217.847656 159.578125 217.824219 158.925781 217.824219 158.273438 C 217.824219 157.621094 217.847656 156.96875 217.890625 156.320312 C 217.933594 155.671875 218 155.027344 218.085938 154.386719 C 218.175781 153.746094 218.28125 153.113281 218.410156 152.488281 C 218.542969 151.867188 218.691406 151.253906 218.863281 150.648438 C 219.035156 150.046875 219.222656 149.457031 219.433594 148.882812 C 219.644531 148.304688 219.875 147.746094 220.121094 147.203125 C 220.371094 146.664062 220.636719 146.136719 220.917969 145.632812 C 221.203125 145.128906 221.5 144.648438 221.816406 144.1875 C 222.132812 143.722656 222.464844 143.285156 222.808594 142.871094 C 223.152344 142.457031 223.511719 142.070312 223.882812 141.707031 C 224.253906 141.34375 224.636719 141.011719 225.03125 140.703125 C 225.425781 140.394531 225.828125 140.117188 226.238281 139.867188 C 226.652344 139.617188 227.070312 139.398438 227.5 139.207031 C 227.925781 139.019531 228.359375 138.859375 228.796875 138.734375 C 229.234375 138.605469 229.675781 138.511719 230.121094 138.445312 C 230.566406 138.382812 231.011719 138.351562 231.457031 138.351562 C 231.902344 138.351562 232.347656 138.382812 232.792969 138.445312 C 233.238281 138.511719 233.679688 138.605469 234.117188 138.734375 C 234.554688 138.859375 234.984375 139.019531 235.414062 139.207031 C 235.839844 139.398438 236.261719 139.617188 236.671875 139.867188 C 237.085938 140.117188 237.488281 140.394531 237.882812 140.703125 C 238.277344 141.011719 238.660156 141.34375 239.03125 141.707031 C 239.402344 142.070312 239.757812 142.457031 240.105469 142.871094 C 240.449219 143.285156 240.78125 143.722656 241.09375 144.1875 C 241.410156 144.648438 241.710938 145.128906 241.992188 145.632812 C 242.277344 146.136719 242.542969 146.664062 242.789062 147.203125 C 243.039062 147.746094 243.269531 148.304688 243.476562 148.882812 C 243.6875 149.457031 243.878906 150.046875 244.050781 150.648438 C 244.222656 151.253906 244.371094 151.867188 244.5 152.488281 C 244.628906 153.113281 244.738281 153.746094 244.824219 154.386719 C 244.914062 155.027344 244.980469 155.671875 245.023438 156.320312 C 245.066406 156.96875 245.089844 157.621094 245.089844 158.273438 Z M 245.089844 158.273438 " fill-opacity="1" fill-rule="nonzero"/><path fill="#000000" d="M 244.402344 257.40625 C 243.730469 257.410156 243.097656 257.253906 242.5 256.9375 C 241.902344 256.625 241.414062 256.191406 241.03125 255.636719 C 230.332031 240.074219 210.660156 230.402344 189.699219 230.402344 C 168.738281 230.402344 149.070312 240.074219 138.367188 255.636719 C 138.214844 255.859375 138.042969 256.0625 137.851562 256.246094 C 137.65625 256.433594 137.449219 256.601562 137.222656 256.746094 C 137 256.890625 136.761719 257.011719 136.511719 257.113281 C 136.265625 257.210938 136.007812 257.285156 135.742188 257.332031 C 135.480469 257.382812 135.214844 257.40625 134.945312 257.402344 C 134.679688 257.398438 134.414062 257.367188 134.152344 257.3125 C 133.890625 257.253906 133.636719 257.175781 133.390625 257.070312 C 133.144531 256.960938 132.910156 256.832031 132.6875 256.683594 C 132.46875 256.53125 132.265625 256.359375 132.078125 256.167969 C 131.890625 255.972656 131.722656 255.765625 131.578125 255.542969 C 131.433594 255.316406 131.308594 255.082031 131.210938 254.832031 C 131.109375 254.582031 131.035156 254.328125 130.988281 254.0625 C 130.9375 253.800781 130.914062 253.535156 130.917969 253.265625 C 130.921875 253 130.949219 252.734375 131.007812 252.472656 C 131.0625 252.207031 131.140625 251.953125 131.246094 251.707031 C 131.351562 251.460938 131.480469 251.226562 131.632812 251.007812 C 144.023438 232.988281 165.730469 222.234375 189.699219 222.234375 C 213.671875 222.234375 235.378906 232.988281 247.765625 251.007812 C 248.195312 251.632812 248.433594 252.324219 248.476562 253.078125 C 248.523438 253.835938 248.371094 254.550781 248.015625 255.222656 C 247.664062 255.894531 247.164062 256.425781 246.515625 256.816406 C 245.867188 257.210938 245.164062 257.40625 244.402344 257.40625 Z M 244.402344 257.40625 " fill-opacity="1" fill-rule="nonzero"/></svg>