<svg xmlns="http://www.w3.org/2000/svg" viewBox="0 0 64 64" id="ui-feed-profile-large" aria-hidden="true" role="none" data-supported-dps="64x64" width="64" height="64">
  <path fill="#fff" d="M2 11h60v51H2z"/>
  <path fill="#dde7f1" d="M62 11v51H2V11H0v53h64V11h-2z"/>
  <path d="M0 11h64V4c0-2.21-1.79-4-4-4H4C1.79 0 0 1.79 0 4v7z" fill="#9db3c8"/>
  <circle cx="5.5" cy="5.5" r="2.5" fill="#fff"/>
  <path d="M29 53H8c-.55 0-1-.45-1-1s.45-1 1-1h21c.55 0 1 .45 1 1s-.45 1-1 1zM29 45H8c-.55 0-1-.45-1-1s.45-1 1-1h21c.55 0 1 .45 1 1s-.45 1-1 1zM29 37H8c-.55 0-1-.45-1-1s.45-1 1-1h21c.55 0 1 .45 1 1s-.45 1-1 1z" fill="#56687a"/>
  <path fill="#f8c77e" d="M7 19h50v8H7z"/>
  <path d="M35 44c0 6.08 4.92 11 11 11s11-4.92 11-11H35z" fill="#c0d1e2"/>
  <path d="M46 33c-6.08 0-11 4.92-11 11h11l7.76-7.76A10.919 10.919 0 0046 33z" fill="#f8c77e"/>
  <path d="M53.76 36.24L46 44h11c0-2.92-1.17-5.71-3.24-7.76z" fill="#e7a33e"/>
  <g>
    <path fill="#fff" d="M2 11h60v51H2z"/>
    <path fill="#dde7f1" d="M62 11v51H2V11H0v53h64V11h-2z"/>
    <path d="M0 11h64V4c0-2.21-1.79-4-4-4H4C1.79 0 0 1.79 0 4v7z" fill="#9db3c8"/>
    <circle cx="5.5" cy="5.5" r="2.5" fill="#fff"/>
    <path d="M56 40H8c-.55 0-1-.45-1-1s.45-1 1-1h48c.55 0 1 .45 1 1s-.45 1-1 1zM56 32H30c-.55 0-1-.45-1-1s.45-1 1-1h26c.55 0 1 .45 1 1s-.45 1-1 1zM56 24H30c-.55 0-1-.45-1-1s.45-1 1-1h26c.55 0 1 .45 1 1s-.45 1-1 1z" fill="#56687a"/>
    <path fill="#f8c77e" d="M7 46h50v8H7z"/>
    <path d="M22.27 30.62A8.426 8.426 0 0024 25.5c0-4.69-3.81-8.5-8.5-8.5S7 20.81 7 25.5c0 1.92.65 3.69 1.73 5.12C10.86 29.55 13.18 29 15.5 29s4.64.54 6.77 1.62z" fill="#56687a"/>
    <path d="M15.5 34c2.77 0 5.22-1.33 6.77-3.38C20.14 29.55 17.82 29 15.5 29s-4.64.54-6.77 1.62c1.55 2.05 4 3.38 6.77 3.38z" fill="#f8c77e"/>
    <circle cx="15.5" cy="23.5" r="3.5" fill="#f8c77e"/>
  </g>
</svg>
