<svg xmlns="http://www.w3.org/2000/svg" xmlns:xlink="http://www.w3.org/1999/xlink" width="512" zoomAndPan="magnify" viewBox="0 0 384 383.999986" height="512" preserveAspectRatio="xMidYMid meet" version="1.0"><path fill="#e7d6bd" d="M 125.773438 296.003906 C 303.160156 344.570312 440.816406 161.535156 350.117188 117.382812 L 187.167969 87.597656 C 161.828125 87.957031 160.015625 121.632812 183.566406 129.425781 C 161.273438 182.332031 124.863281 236.820312 36.964844 186.824219 C 1.4375 186.453125 0.558594 223.75 21.828125 236.59375 C 59.664062 259.796875 106.800781 289.667969 125.773438 296.003906 " fill-opacity="1" fill-rule="nonzero"/><path fill="#d8cbb9" d="M 360.441406 185.140625 C 378.066406 174.019531 368.59375 128.121094 349.699219 117.382812 L 182.109375 112.609375 L 177.402344 126.730469 C 179.113281 127.808594 181.027344 128.722656 183.144531 129.425781 C 181.539062 133.238281 179.855469 137.0625 178.089844 140.855469 C 231.300781 160.949219 286.695312 172.394531 360.441406 185.140625 " fill-opacity="1" fill-rule="nonzero"/><path fill="#a18e74" d="M 347.523438 167.019531 C 356.378906 166.953125 363.3125 140.949219 344.382812 135.195312 L 270.269531 119.910156 L 269.851562 147.757812 L 347.523438 167.019531 " fill-opacity="1" fill-rule="nonzero"/><path fill="#dabd9d" d="M 344.382812 135.195312 C 332.394531 137.378906 329.484375 151.976562 341.523438 157.152344 L 303.613281 149.335938 L 313.433594 127.472656 L 344.382812 135.195312 " fill-opacity="1" fill-rule="nonzero"/><path fill="#665a4c" d="M 117.042969 251.960938 C 109.855469 249.027344 62.273438 219.003906 28.160156 198.214844 L 115.042969 231.601562 C 125.304688 235.277344 123.792969 250.617188 117.042969 251.960938 " fill-opacity="1" fill-rule="nonzero"/><path fill="#a18e74" d="M 77.039062 230.90625 C 88.550781 236.464844 103.148438 246.273438 117.042969 251.960938 C 108.765625 248 110.691406 241.210938 115.855469 240.566406 L 93.027344 230.457031 L 77.039062 230.90625 " fill-opacity="1" fill-rule="nonzero"/><path fill="#f2e7db" d="M 349.699219 117.382812 L 186.75 87.597656 C 161.40625 87.957031 159.597656 121.632812 183.144531 129.425781 C 182.996094 129.773438 347.523438 167.019531 347.523438 167.019531 C 304.28125 151.34375 326.800781 115.621094 349.699219 117.382812 " fill-opacity="1" fill-rule="nonzero"/><path fill="#dabd9d" d="M 115.042969 231.601562 C 115.042969 231.601562 49.472656 194.175781 36.546875 186.824219 C 1.019531 186.453125 0.136719 223.75 21.410156 236.59375 C 59.242188 259.796875 106.382812 289.667969 125.355469 296.003906 C 149.527344 302.621094 172.960938 304.929688 195.183594 303.886719 C 96.910156 307.214844 90.296875 235.40625 115.042969 231.601562 " fill-opacity="1" fill-rule="nonzero"/><path fill="#d8cbb9" d="M 232.125 276.871094 C 232.125 285.59375 207.820312 292.667969 177.839844 292.667969 C 147.855469 292.667969 123.550781 285.59375 123.550781 276.871094 C 123.550781 268.144531 147.855469 261.074219 177.839844 261.074219 C 207.820312 261.074219 232.125 268.144531 232.125 276.871094 " fill-opacity="1" fill-rule="nonzero"/><path fill="#d8cbb9" d="M 173.238281 261.882812 C 173.238281 261.882812 190.058594 258.890625 191.179688 253.285156 C 192.304688 247.675781 201.644531 243.9375 205.007812 246.554688 L 209.496094 242.816406 L 208.375 236.460938 C 243.414062 204.394531 301.878906 181.734375 347.011719 177.1875 C 306.605469 195.726562 252.480469 227.140625 229.304688 248.050781 L 216.972656 246.554688 C 216.972656 246.554688 209.867188 248.800781 210.242188 249.171875 C 210.617188 249.546875 219.585938 250.292969 217.71875 257.398438 C 215.847656 264.5 198.65625 268.238281 198.28125 268.238281 C 197.910156 268.238281 158.257812 279.214844 157.539062 265.621094 C 157.257812 260.25 173.238281 261.882812 173.238281 261.882812 " fill-opacity="1" fill-rule="nonzero"/><path fill="#aea39c" d="M 179.132812 236.460938 C 177.542969 231.574219 177.691406 226.71875 179.105469 219.480469 L 139.34375 219.59375 C 141.492188 227.320312 141.5625 233.015625 139.710938 238.207031 C 128.890625 243.480469 121.742188 252.5625 121.742188 262.886719 C 121.742188 279.179688 139.53125 292.390625 161.472656 292.390625 C 183.417969 292.390625 201.207031 279.179688 201.207031 262.886719 C 201.207031 251.304688 192.214844 241.285156 179.132812 236.460938 " fill-opacity="1" fill-rule="nonzero"/><path fill="#5c483d" d="M 201.207031 262.886719 C 201.207031 251.304688 192.214844 241.285156 179.132812 236.460938 C 177.542969 231.574219 177.691406 226.71875 179.105469 219.480469 L 173.191406 219.496094 L 169.117188 222.050781 L 168.785156 236.3125 L 164.640625 238.46875 C 184.679688 250.800781 187.039062 281.777344 153.777344 291.832031 C 156.269531 292.195312 158.839844 292.390625 161.472656 292.390625 C 183.417969 292.390625 201.207031 279.179688 201.207031 262.886719 " fill-opacity="1" fill-rule="nonzero"/><path fill="#43352d" d="M 169.347656 237.246094 C 172.617188 238.167969 179.179688 237.289062 179.132812 236.460938 C 177.542969 231.574219 177.691406 226.71875 179.105469 219.480469 L 177.890625 219.484375 L 173.703125 223.007812 C 174.671875 230.605469 173.578125 233.996094 169.347656 237.246094 " fill-opacity="1" fill-rule="nonzero"/><path fill="#352018" d="M 319.4375 81.820312 C 301.976562 87.175781 287.5 93.535156 273.078125 102.136719 L 264.222656 100.054688 L 266.777344 105.976562 C 266.777344 105.976562 250.714844 116.710938 249.933594 116.710938 C 249.148438 116.710938 240.78125 114.640625 240.78125 114.640625 L 244.949219 119.070312 C 239.070312 123.75 234.460938 126.886719 234.007812 131.050781 L 217.34375 131.050781 L 228.539062 135.222656 C 222.921875 142.390625 220.011719 146.246094 217.34375 151.628906 L 202.496094 150.847656 L 209.789062 154.234375 L 203.796875 168.042969 L 191.296875 169.867188 L 200.410156 171.429688 L 192.335938 184.453125 L 164.992188 189.660156 L 155.355469 165.695312 C 157.230469 154.921875 160.21875 147.503906 168.898438 135.480469 L 177.753906 144.859375 C 175.503906 136.90625 175.480469 132.84375 178.796875 126.625 C 178.796875 126.625 182.960938 138.605469 183.222656 137.5625 C 183.484375 136.523438 184.265625 118.289062 184.265625 118.289062 C 189.125 113.957031 193.726562 109.546875 201.714844 105.523438 L 203.539062 120.894531 C 203.539062 120.894531 209.269531 99.53125 210.308594 99.273438 C 211.351562 99.011719 230.363281 89.636719 230.363281 89.636719 L 229.84375 99.273438 C 229.84375 99.273438 234.53125 87.289062 234.53125 88.332031 C 234.53125 89.375 235.050781 98.75 235.832031 98.492188 C 234.882812 97.128906 240.074219 85.136719 242.082031 83.90625 C 243.929688 81.132812 249.539062 80.46875 262.136719 79.476562 L 262.136719 88.59375 L 266.046875 81.820312 L 266.304688 86.507812 L 269.691406 81.039062 L 271.773438 85.207031 C 271.773438 85.207031 276.722656 78.433594 277.503906 78.433594 C 294.269531 76.070312 304.390625 77.773438 319.4375 81.820312 " fill-opacity="1" fill-rule="nonzero"/><path fill="#5c483d" d="M 168.472656 177.757812 L 163.03125 157.546875 L 169.894531 174.777344 C 169.894531 174.777344 165.105469 152.238281 165.234375 152.496094 C 165.363281 152.753906 170.234375 163.71875 171.96875 169.59375 L 167.953125 147.703125 L 174.429688 167.003906 L 172.355469 146.796875 L 176.503906 163.765625 C 176.503906 163.765625 199.6875 156.769531 199.554688 156.769531 C 199.554688 156.769531 177.539062 167.523438 177.667969 167.523438 C 177.796875 167.523438 192.304688 165.96875 192.171875 165.96875 C 192.171875 165.96875 174.816406 171.667969 174.945312 171.667969 C 175.078125 171.667969 184.945312 172.148438 189.839844 173.09375 L 174.980469 175.898438 C 174.980469 175.898438 188.675781 177.757812 188.546875 177.757812 C 188.417969 177.757812 177.011719 178.453125 171.429688 179.820312 L 186.214844 181.769531 L 167.375 183.003906 L 160.441406 166.617188 L 168.472656 177.757812 " fill-opacity="1" fill-rule="nonzero"/><path fill="#aea39c" d="M 182.898438 214.71875 C 182.898438 221.09375 172.273438 226.265625 159.167969 226.265625 C 146.058594 226.265625 135.433594 221.09375 135.433594 214.71875 C 135.433594 208.339844 146.058594 203.171875 159.167969 203.171875 C 172.273438 203.171875 182.898438 208.339844 182.898438 214.71875 " fill-opacity="1" fill-rule="nonzero"/><path fill="#43352d" d="M 172.289062 208.492188 C 172.289062 210.390625 166.265625 211.929688 158.832031 211.929688 C 151.398438 211.929688 145.375 210.390625 145.375 208.492188 C 145.375 206.59375 151.398438 205.058594 158.832031 205.058594 C 166.265625 205.058594 172.289062 206.59375 172.289062 208.492188 " fill-opacity="1" fill-rule="nonzero"/><path fill="#5c483d" d="M 182.898438 214.71875 C 182.898438 211.136719 179.550781 207.9375 174.296875 205.820312 C 179.398438 210.773438 177.078125 225.367188 141.871094 222.621094 C 146.199219 224.863281 152.34375 226.265625 159.167969 226.265625 C 172.273438 226.265625 182.898438 221.09375 182.898438 214.71875 " fill-opacity="1" fill-rule="nonzero"/><path fill="#dad4cf" d="M 142.253906 209.445312 C 142.085938 214.046875 146.167969 218.660156 166.464844 213.925781 C 150.652344 214.902344 144.6875 213.109375 142.253906 209.445312 " fill-opacity="1" fill-rule="nonzero"/><path fill="#dad4cf" d="M 135.230469 258.339844 C 136.46875 254.238281 138.691406 250.285156 142.109375 246 C 140.371094 245.839844 138.550781 245.78125 136.554688 245.800781 C 132.78125 249.394531 130.332031 252.808594 129.101562 256.445312 C 131.074219 257.15625 133.097656 257.800781 135.230469 258.339844 " fill-opacity="1" fill-rule="nonzero"/><path fill="#dad4cf" d="M 146.617188 246.664062 C 143.421875 251.066406 141.289062 255.082031 140.027344 259.339844 C 142.484375 259.738281 145.097656 259.996094 147.929688 260.070312 C 149.289062 256.1875 151.601562 252.425781 154.402344 249.082031 C 151.617188 247.96875 149.125 247.183594 146.617188 246.664062 " fill-opacity="1" fill-rule="nonzero"/><path fill="#dad4cf" d="M 146.675781 265.875 C 143.722656 265.585938 141.164062 265.226562 138.894531 264.800781 C 138.445312 268.335938 138.472656 272.1875 138.871094 276.632812 C 141.769531 277.300781 145.214844 277.527344 149.941406 277.433594 C 147.304688 273.804688 146.378906 269.851562 146.675781 265.875 " fill-opacity="1" fill-rule="nonzero"/><path fill="#dad4cf" d="M 134.160156 263.710938 C 131.957031 263.097656 130.023438 262.398438 128.171875 261.617188 C 128.058594 264.910156 128.773438 268.484375 130.253906 272.578125 C 131.777344 273.652344 133.210938 274.519531 134.703125 275.210938 C 134.019531 270.96875 133.796875 267.21875 134.160156 263.710938 " fill-opacity="1" fill-rule="nonzero"/><path fill="#dad4cf" d="M 142.726562 226.328125 C 145.382812 231.292969 145.761719 235.105469 142.171875 238.75 C 143.734375 234.019531 143.859375 231.253906 142.726562 226.328125 " fill-opacity="1" fill-rule="nonzero"/><path fill="#dad4cf" d="M 137.152344 210.402344 C 136.046875 211.734375 135.433594 213.191406 135.433594 214.71875 C 135.433594 217.726562 137.800781 220.46875 141.679688 222.519531 C 141.679688 222.519531 135.183594 217.496094 137.152344 210.402344 " fill-opacity="1" fill-rule="nonzero"/><path fill="#5c483d" d="M 190.414062 144.789062 L 188.167969 121.203125 L 192.660156 141.292969 L 192.035156 118.207031 L 195.652344 138.050781 L 195.15625 120.578125 C 195.15625 120.578125 198.027344 135.054688 198.148438 135.054688 L 198.148438 111.46875 C 198.148438 111.71875 199.078125 126.117188 200.894531 133.183594 L 223.355469 136.675781 L 200.644531 135.929688 L 219.113281 140.546875 L 197.527344 139.796875 C 197.527344 139.796875 216.742188 144.164062 216.617188 144.164062 C 216.492188 144.164062 202.144531 143.539062 195.03125 142.292969 L 215.367188 147.410156 L 190.414062 144.789062 " fill-opacity="1" fill-rule="nonzero"/><path fill="#5c483d" d="M 212.625 123.199219 L 212.5 100.863281 L 215.621094 121.203125 C 215.621094 121.203125 217.492188 99.238281 217.492188 99.363281 C 217.492188 99.488281 218.035156 111.335938 219.113281 117.210938 L 221.109375 96.867188 L 222.230469 113.714844 C 222.230469 113.714844 224.226562 96.117188 224.226562 96.246094 C 224.226562 96.367188 224.605469 107.015625 225.351562 112.34375 L 227.972656 101.234375 L 229.46875 109.597656 L 231.089844 101.859375 L 231.839844 107.851562 L 240.945312 111.21875 L 229.46875 112.09375 L 237.328125 116.585938 L 225.847656 114.214844 C 225.847656 114.214844 236.457031 120.207031 236.332031 120.207031 C 236.207031 120.207031 226.96875 119.207031 222.730469 117.335938 L 232.835938 124.449219 C 232.835938 124.449219 218.363281 120.453125 218.363281 120.578125 L 231.214844 127.941406 L 215.492188 122.949219 L 225.101562 128.941406 L 212.625 123.199219 " fill-opacity="1" fill-rule="nonzero"/><path fill="#5c483d" d="M 241.945312 102.859375 L 244.316406 88.753906 L 244.316406 100.363281 L 248.183594 85.011719 L 247.6875 98.742188 L 253.050781 84.511719 L 252.175781 96.992188 L 254.796875 87.382812 C 254.796875 87.382812 255.171875 95.621094 255.296875 95.621094 L 258.292969 83.890625 L 257.292969 95.996094 L 262.535156 105.355469 L 254.875 97.894531 L 258.917969 106.976562 L 249.9375 100.378906 C 249.9375 100.378906 256.917969 111.96875 256.171875 111.21875 C 255.421875 110.472656 249.785156 104.875 246.5625 101.734375 L 253.425781 112.34375 L 241.945312 102.859375 " fill-opacity="1" fill-rule="nonzero"/><path fill="#5c483d" d="M 273.640625 89.132812 L 278.382812 81.644531 L 276.714844 87.457031 L 282.375 82.140625 L 280.125 87.132812 L 287.613281 81.644531 C 287.613281 81.644531 284.402344 87.046875 284.199219 86.777344 L 292.855469 89.003906 L 280.695312 87.804688 L 288.988281 91.75 L 277.226562 88.898438 L 285.617188 94.246094 L 274.75 89.722656 L 279.753906 95.871094 L 272.035156 90.679688 L 273.640625 89.132812 " fill-opacity="1" fill-rule="nonzero"/><path fill="#bfb291" d="M 155.738281 205.148438 C 154.992188 207.289062 154.269531 209.457031 153.5625 211.65625 C 155.179688 211.828125 156.960938 211.929688 158.832031 211.929688 C 159.8125 211.929688 160.765625 211.902344 161.683594 211.847656 C 162.214844 209.640625 162.792969 207.445312 163.417969 205.261719 C 180.945312 144.082031 234.742188 92.492188 307.457031 81.820312 C 231.308594 90.617188 181.597656 130.949219 155.738281 205.148438 " fill-opacity="1" fill-rule="nonzero"/><path fill="#ccc2a6" d="M 159.175781 210.773438 C 157.789062 211.011719 174.230469 172.449219 175.175781 172.222656 C 172.804688 173.09375 171.65625 174.523438 170.992188 175.675781 L 172.082031 176.585938 L 167.355469 178.949219 C 167.355469 178.949219 170.632812 179.863281 170.449219 180.042969 C 169.007812 181.453125 167.554688 182.847656 166.082031 184.222656 L 168.085938 185.132812 L 163.722656 188.769531 L 166.449219 190.042969 L 161.539062 193.679688 L 164.085938 195.316406 L 159.722656 199.136719 L 161.355469 201.136719 L 157.722656 204.59375 L 159.539062 205.863281 L 154.8125 210.773438 L 159.175781 210.773438 " fill-opacity="1" fill-rule="nonzero"/><path fill="#dad4cf" d="M 213.191406 123.875 C 196.640625 135.035156 186.875 147.789062 178.058594 166 C 187.628906 148.878906 199.46875 135.5 213.191406 123.875 " fill-opacity="1" fill-rule="nonzero"/><path fill="#43352d" d="M 201.207031 262.886719 C 201.207031 252.859375 194.460938 244.003906 184.164062 238.675781 C 206.566406 255.957031 192.855469 281.859375 175.015625 290.628906 C 190.289062 286.519531 201.207031 275.648438 201.207031 262.886719 " fill-opacity="1" fill-rule="nonzero"/></svg>